<svg width="107" height="40" viewBox="0 0 107 40" fill="none" xmlns="http://www.w3.org/2000/svg">
<rect width="106.4" height="40" fill="#FFA726"/>
<path d="M20.2489 26.1884L19 24.9324V14.4131L20.2489 13H29.4594L30.7083 14.4131V17.0821H28.2105V15.6691H21.6539V23.5194H28.2105V22.2633H30.8644V24.9324L29.4594 26.1884H20.2489Z" fill="white"/>
<path d="M32.4243 26.1884V13H43.5082V15.6691H35.0782V18.3382H42.8837V20.8503H35.0782V23.5193H43.5082V26.1884H32.4243Z" fill="white"/>
<path d="M45.2261 26.1884V13H55.6855L56.9344 14.413V18.3382L55.6855 19.5942L57.0905 20.8503V24.7754L55.8416 26.0314H45.2261V26.1884ZM54.4366 18.3382V15.6691H47.88V18.3382H54.4366ZM54.4366 23.5193V20.8503H47.88V23.5193H54.4366Z" fill="white"/>
<path d="M58.6528 26.1884V16.9251L62.5556 13H70.3611V26.1884H67.7073V22.2633H61.1506V26.1884H58.6528ZM67.8634 19.5942V15.6691H63.9606L61.3067 18.3382V19.5942H67.8634Z" fill="white"/>
<path d="M72.2329 26.1884V22.2633L74.8868 19.5942L72.2329 16.9251V13H74.8868V15.6691L77.5407 18.3382H78.7896V13H81.4434V18.3382H82.6923L85.3462 15.6691V13H88.0001V16.9251L85.3462 19.5942L88.0001 22.2633V26.1884H85.3462V23.5193L82.6923 20.8503H81.4434V26.0314H78.7896V20.8503H77.5407L74.8868 23.5193V26.1884H72.2329Z" fill="white"/>
</svg>
