<svg width="30" height="30" viewBox="0 0 30 30" fill="none" xmlns="http://www.w3.org/2000/svg">
<circle cx="15" cy="15" r="14" fill="white" stroke="#FFA726" stroke-width="2"/>
<path d="M14.1377 17.3965C14.1494 16.6992 14.2285 16.1484 14.375 15.7441C14.5215 15.3398 14.8203 14.8916 15.2715 14.3994L16.4229 13.2129C16.915 12.6562 17.1611 12.0586 17.1611 11.4199C17.1611 10.8047 17 10.3242 16.6777 9.97852C16.3555 9.62695 15.8867 9.45117 15.2715 9.45117C14.6738 9.45117 14.1934 9.60938 13.8301 9.92578C13.4668 10.2422 13.2852 10.667 13.2852 11.2002H11.6592C11.6709 10.251 12.0078 9.48633 12.6699 8.90625C13.3379 8.32031 14.2051 8.02734 15.2715 8.02734C16.3789 8.02734 17.2402 8.32617 17.8555 8.92383C18.4766 9.51562 18.7871 10.3301 18.7871 11.3672C18.7871 12.3926 18.3125 13.4033 17.3633 14.3994L16.4053 15.3486C15.9775 15.8232 15.7637 16.5059 15.7637 17.3965H14.1377ZM14.0674 20.1826C14.0674 19.9189 14.1465 19.6992 14.3047 19.5234C14.4688 19.3418 14.709 19.251 15.0254 19.251C15.3418 19.251 15.582 19.3418 15.7461 19.5234C15.9102 19.6992 15.9922 19.9189 15.9922 20.1826C15.9922 20.4463 15.9102 20.666 15.7461 20.8418C15.582 21.0117 15.3418 21.0967 15.0254 21.0967C14.709 21.0967 14.4688 21.0117 14.3047 20.8418C14.1465 20.666 14.0674 20.4463 14.0674 20.1826Z" fill="#F69110"/>
</svg>
