<svg width="25" height="25" viewBox="0 0 25 25" fill="none" xmlns="http://www.w3.org/2000/svg">
<g clip-path="url(#clip0)">
<path d="M1.12091e-06 18.7729L1.46606e-06 10.8768C1.56163e-06 8.69045 0.851442 6.6349 2.39735 5.089L5.92613 1.56021C6.66981 0.816344 7.52983 0.781249 7.82833 0.781249C10.2373 0.781249 11.3894 3.73955 9.65233 5.35374L7.6889 7.17678C7.13253 7.69348 7.49893 8.62637 8.25825 8.62637L22.5025 8.62637C23.8817 8.62637 25 9.74236 25 11.1238C25 12.5011 23.8796 13.6215 22.5025 13.6215L17.7158 13.6215C17.8595 13.9362 17.9394 14.286 17.9394 14.6542C17.9394 15.5602 17.4545 16.3551 16.7305 16.7929C16.9985 17.1907 17.1551 17.6697 17.1551 18.1845C17.1551 19.0905 16.67 19.8854 15.946 20.3232C16.214 20.7211 16.3704 21.2 16.3704 21.7148C16.3704 23.094 15.2546 24.2123 13.8729 24.2123L5.43938 24.2123C2.4353 24.2123 9.89388e-07 21.7817 1.12091e-06 18.7729ZM7.82833 2.24609L7.80678 2.24609C7.49226 2.24609 7.18441 2.37369 6.96201 2.5959L3.43323 6.12469C2.16389 7.39403 1.46485 9.08165 1.46485 10.8768L1.46484 18.7729C1.46484 20.9679 3.24078 22.7474 5.43938 22.7474L13.8729 22.7474C14.4424 22.7474 14.9055 22.2841 14.9055 21.7148C14.9055 21.1452 14.4423 20.682 13.8729 20.682L12.5 20.682C12.0955 20.682 11.7676 20.3541 11.7676 19.9495C11.7676 19.5452 12.0955 19.2171 12.5 19.2171L14.6574 19.2171C15.2269 19.2171 15.69 18.7538 15.69 18.1845C15.69 17.6151 15.2267 17.1518 14.6574 17.1518L12.5 17.1518C12.0955 17.1518 11.7676 16.8238 11.7676 16.4194C11.7676 16.0149 12.0955 15.687 12.5 15.687L15.4419 15.687C16.0112 15.687 16.4745 15.2237 16.4745 14.6542C16.4745 14.0848 16.0112 13.6215 15.4419 13.6215L12.5 13.6215C12.0955 13.6215 11.7676 13.2936 11.7676 12.8891C11.7676 12.4846 12.0955 12.1567 12.5 12.1567L22.5025 12.1567C23.0719 12.1567 23.5352 11.6934 23.5352 11.124C23.5352 10.5536 23.0707 10.0914 22.5025 10.0914L8.25825 10.0914C6.17008 10.0914 5.16052 7.52583 6.69212 6.10352L8.65536 4.28066C9.42288 3.56731 8.90732 2.24609 7.82833 2.24609V2.24609Z" fill="#FFA726"/>
</g>
<defs>
<clipPath id="clip0">
<rect width="25" height="25" fill="white" transform="translate(25) rotate(90)"/>
</clipPath>
</defs>
</svg>
