<svg width="30" height="30" viewBox="0 0 30 30" fill="none" xmlns="http://www.w3.org/2000/svg">
<g clip-path="url(#clip0)">
<path d="M15 30C23.2843 30 30 23.2843 30 15C30 6.71573 23.2843 0 15 0C6.71573 0 0 6.71573 0 15C0 23.2843 6.71573 30 15 30Z" fill="#7B519D"/>
<path fill-rule="evenodd" clip-rule="evenodd" d="M21.3747 18.6546C20.9172 18.2864 20.4284 17.9559 19.9473 17.6183C18.9876 16.9443 18.1099 16.8918 17.3938 17.9762C16.9917 18.585 16.4288 18.6117 15.8402 18.3446C14.2176 17.6088 12.9646 16.4752 12.2307 14.826C11.906 14.0963 11.9103 13.4421 12.6699 12.926C13.0721 12.6531 13.4773 12.3302 13.4449 11.7338C13.4026 10.9562 11.5146 8.35756 10.769 8.08324C10.4605 7.96978 10.1533 7.97716 9.83941 8.08264C8.09113 8.67058 7.36705 10.1084 8.06053 11.8107C10.1294 16.8899 13.7703 20.4257 18.7821 22.5839C19.0678 22.7067 19.3852 22.7559 19.546 22.8C20.6871 22.8114 22.0237 21.7121 22.4097 20.6211C22.7814 19.5714 21.9959 19.1548 21.3747 18.6546ZM15.7551 8.60398C19.4191 9.16744 21.1089 10.9097 21.5754 14.6001C21.6187 14.9409 21.4917 15.4539 21.9781 15.4633C22.4863 15.473 22.3639 14.9676 22.3681 14.6265C22.4111 11.1508 19.3806 7.92874 15.861 7.80994C15.5955 7.84816 15.046 7.62682 15.0118 8.22196C14.9889 8.62324 15.4515 8.5573 15.7551 8.60398Z" fill="white"/>
<path fill-rule="evenodd" clip-rule="evenodd" d="M16.4719 9.61568C16.1194 9.57326 15.6542 9.40718 15.5719 9.89618C15.4858 10.4095 16.0044 10.3573 16.3376 10.4319C18.6005 10.9377 19.3885 11.7613 19.7611 14.0061C19.8155 14.3334 19.7074 14.8427 20.2636 14.7583C20.6758 14.6955 20.5268 14.2589 20.5613 14.0038C20.5796 11.8488 18.7329 9.88718 16.4719 9.61568Z" fill="white"/>
<path fill-rule="evenodd" clip-rule="evenodd" d="M16.6797 11.3781C16.4445 11.3839 16.2136 11.4093 16.1271 11.6607C15.9972 12.0365 16.2704 12.1261 16.5485 12.1707C17.4768 12.3198 17.9653 12.8671 18.058 13.7929C18.0831 14.0441 18.2425 14.2477 18.4852 14.2191C18.8216 14.1789 18.852 13.8796 18.8417 13.5953C18.8583 12.5553 17.6828 11.3532 16.6797 11.3781Z" fill="white"/>
</g>
<defs>
<clipPath id="clip0">
<rect width="30" height="30" fill="white"/>
</clipPath>
</defs>
</svg>
