<svg width="30" height="30" viewBox="0 0 30 30" fill="none" xmlns="http://www.w3.org/2000/svg">
<g clip-path="url(#clip0)">
<path d="M0 30L2.06894 22.5C0.724158 20.1724 0 17.5862 0 14.8965C0 6.72414 6.72414 0 14.9483 0C23.1724 0 30 6.72414 30 14.8965C30 23.0689 23.1724 30 14.9483 30C12.362 30 9.8793 29.1724 7.65516 27.9311L0 30Z" fill="url(#paint0_linear)"/>
<path d="M8.06897 25.2413L8.53451 25.5C10.4483 26.6896 12.6725 27.4138 15.0001 27.4138C21.7759 27.4138 27.4138 21.7758 27.4138 14.8965C27.4138 8.01719 21.7759 2.58618 14.9483 2.58618C8.12069 2.58618 2.58624 8.06891 2.58624 14.8965C2.58624 17.2758 3.25867 19.6034 4.50003 21.5689L4.81041 22.0345L3.62077 26.3793L8.06897 25.2413Z" fill="#55CD6C"/>
<path d="M10.9655 7.96554L9.98272 7.91382C9.67234 7.91382 9.36202 8.01732 9.15514 8.2242C8.6896 8.63796 7.91374 9.41382 7.70686 10.4483C7.34482 12.0001 7.91374 13.8622 9.25858 15.7242C10.6034 17.5862 13.1897 20.5862 17.7413 21.8794C19.1896 22.2931 20.3276 22.0345 21.2586 21.4655C21.9828 21 22.4483 20.2759 22.6034 19.5L22.7586 18.7759C22.8104 18.569 22.7069 18.3103 22.5 18.2069L19.2413 16.7069C19.0344 16.6034 18.7758 16.6552 18.6207 16.8621L17.3276 18.5173C17.2241 18.6207 17.0689 18.6724 16.9137 18.6207C16.0344 18.3103 13.0862 17.069 11.4827 13.9655C11.431 13.8104 11.4309 13.6552 11.5344 13.5518L12.7758 12.1552C12.8793 12.0001 12.9309 11.7932 12.8793 11.638L11.3793 8.27592C11.3275 8.1207 11.1723 7.96554 10.9655 7.96554Z" fill="#FEFEFE"/>
</g>
<defs>
<linearGradient id="paint0_linear" x1="15" y1="0" x2="15" y2="30" gradientUnits="userSpaceOnUse">
<stop stop-color="#F7F7F7"/>
<stop offset="1" stop-color="#F1F4F4"/>
</linearGradient>
<clipPath id="clip0">
<rect width="30" height="30" fill="white"/>
</clipPath>
</defs>
</svg>
