<svg width="120" height="30" viewBox="0 0 120 30" fill="none" xmlns="http://www.w3.org/2000/svg">
<rect width="120" height="30" rx="5" fill="#3F7CFF"/>
<path d="M25.7568 19H24.4375V10.127H19.5293V19H18.2168V9.04688H25.7568V19ZM27.6162 15.2334C27.6162 14.5088 27.7575 13.8571 28.04 13.2783C28.3271 12.6995 28.7236 12.2529 29.2295 11.9385C29.7399 11.624 30.321 11.4668 30.9727 11.4668C31.9798 11.4668 32.7933 11.8154 33.4131 12.5127C34.0374 13.21 34.3496 14.1374 34.3496 15.2949V15.3838C34.3496 16.1038 34.2106 16.751 33.9326 17.3252C33.6592 17.8949 33.265 18.3392 32.75 18.6582C32.2396 18.9772 31.6517 19.1367 30.9863 19.1367C29.9837 19.1367 29.1702 18.7881 28.5459 18.0908C27.9261 17.3936 27.6162 16.4707 27.6162 15.3223V15.2334ZM28.8877 15.3838C28.8877 16.2041 29.0768 16.8626 29.4551 17.3594C29.8379 17.8561 30.3483 18.1045 30.9863 18.1045C31.6289 18.1045 32.1393 17.8538 32.5176 17.3525C32.8958 16.8467 33.085 16.1403 33.085 15.2334C33.085 14.4222 32.8913 13.766 32.5039 13.2646C32.1211 12.7588 31.6107 12.5059 30.9727 12.5059C30.3483 12.5059 29.8447 12.7542 29.4619 13.251C29.0791 13.7477 28.8877 14.4587 28.8877 15.3838ZM35.3818 17.9678L35.8193 17.4277C36.3115 16.7897 36.5918 15.8327 36.6602 14.5566L36.7764 11.6035H41.541V17.9678H42.4912V21.1738H41.2266V19H36.0654V21.1738H34.8008L34.8076 17.9678H35.3818ZM36.8789 17.9678H40.2764V12.7725H38L37.9248 14.5361C37.8473 16.0081 37.4987 17.152 36.8789 17.9678ZM49.9424 19H48.6777V12.6494H45.2734V19H44.002V11.6035H49.9424V19ZM56.7578 11.6035H58.0225V19H56.7578V13.6064L53.3467 19H52.082V11.6035H53.3467V17.0039L56.7578 11.6035ZM63.0195 18.1045C63.4707 18.1045 63.8649 17.9678 64.2021 17.6943C64.5394 17.4209 64.7262 17.0791 64.7627 16.6689H65.959C65.9362 17.0928 65.7904 17.4961 65.5215 17.8789C65.2526 18.2617 64.8926 18.5671 64.4414 18.7949C63.9948 19.0228 63.5208 19.1367 63.0195 19.1367C62.0124 19.1367 61.2103 18.8018 60.6133 18.1318C60.0208 17.4574 59.7246 16.5368 59.7246 15.3701V15.1582C59.7246 14.4382 59.8568 13.7979 60.1211 13.2373C60.3854 12.6768 60.7637 12.2415 61.2559 11.9316C61.7526 11.6217 62.3382 11.4668 63.0127 11.4668C63.8421 11.4668 64.5303 11.7152 65.0771 12.2119C65.6286 12.7087 65.9225 13.3535 65.959 14.1465H64.7627C64.7262 13.668 64.5439 13.276 64.2158 12.9707C63.8923 12.6608 63.4912 12.5059 63.0127 12.5059C62.3701 12.5059 61.8711 12.7383 61.5156 13.2031C61.1647 13.6634 60.9893 14.3311 60.9893 15.2061V15.4453C60.9893 16.2975 61.1647 16.9538 61.5156 17.4141C61.8665 17.8743 62.3678 18.1045 63.0195 18.1045ZM71.9473 19C71.8743 18.8542 71.8151 18.5944 71.7695 18.2207C71.1816 18.8314 70.4798 19.1367 69.6641 19.1367C68.9349 19.1367 68.3356 18.9316 67.8662 18.5215C67.4014 18.1068 67.1689 17.5827 67.1689 16.9492C67.1689 16.179 67.4606 15.582 68.0439 15.1582C68.6318 14.7298 69.4567 14.5156 70.5186 14.5156H71.749V13.9346C71.749 13.4925 71.6169 13.1416 71.3525 12.8818C71.0882 12.6175 70.6986 12.4854 70.1836 12.4854C69.7324 12.4854 69.3542 12.5993 69.0488 12.8271C68.7435 13.055 68.5908 13.3307 68.5908 13.6543H67.3193C67.3193 13.2852 67.4492 12.9297 67.709 12.5879C67.9733 12.2415 68.3288 11.9681 68.7754 11.7676C69.2266 11.5671 69.721 11.4668 70.2588 11.4668C71.111 11.4668 71.7786 11.681 72.2617 12.1094C72.7448 12.5332 72.9954 13.1188 73.0137 13.8662V17.2705C73.0137 17.9495 73.1003 18.4896 73.2734 18.8906V19H71.9473ZM69.8486 18.0361C70.2451 18.0361 70.6211 17.9336 70.9766 17.7285C71.332 17.5234 71.5895 17.2568 71.749 16.9287V15.4111H70.7578C69.2083 15.4111 68.4336 15.8646 68.4336 16.7715C68.4336 17.168 68.5658 17.4779 68.8301 17.7012C69.0944 17.9245 69.4339 18.0361 69.8486 18.0361ZM80.3828 12.6289H77.9014V19H76.6367V12.6289H74.2031V11.6035H80.3828V12.6289ZM82.9941 14.1533H84.915C85.7536 14.1624 86.4167 14.3812 86.9043 14.8096C87.3919 15.238 87.6357 15.819 87.6357 16.5527C87.6357 17.291 87.3851 17.8835 86.8838 18.3301C86.3825 18.7767 85.708 19 84.8604 19H81.7295V11.6035H82.9941V14.1533ZM82.9941 15.1855V17.9678H84.874C85.348 17.9678 85.7148 17.847 85.9746 17.6055C86.2344 17.3594 86.3643 17.0244 86.3643 16.6006C86.3643 16.1904 86.2367 15.8555 85.9814 15.5957C85.7308 15.3314 85.3776 15.1947 84.9219 15.1855H82.9941ZM92.1816 18.1045C92.6328 18.1045 93.027 17.9678 93.3643 17.6943C93.7015 17.4209 93.8883 17.0791 93.9248 16.6689H95.1211C95.0983 17.0928 94.9525 17.4961 94.6836 17.8789C94.4147 18.2617 94.0547 18.5671 93.6035 18.7949C93.1569 19.0228 92.6829 19.1367 92.1816 19.1367C91.1745 19.1367 90.3724 18.8018 89.7754 18.1318C89.1829 17.4574 88.8867 16.5368 88.8867 15.3701V15.1582C88.8867 14.4382 89.0189 13.7979 89.2832 13.2373C89.5475 12.6768 89.9258 12.2415 90.418 11.9316C90.9147 11.6217 91.5003 11.4668 92.1748 11.4668C93.0042 11.4668 93.6924 11.7152 94.2393 12.2119C94.7907 12.7087 95.0846 13.3535 95.1211 14.1465H93.9248C93.8883 13.668 93.7061 13.276 93.3779 12.9707C93.0544 12.6608 92.6533 12.5059 92.1748 12.5059C91.5322 12.5059 91.0332 12.7383 90.6777 13.2031C90.3268 13.6634 90.1514 14.3311 90.1514 15.2061V15.4453C90.1514 16.2975 90.3268 16.9538 90.6777 17.4141C91.0286 17.8743 91.5299 18.1045 92.1816 18.1045ZM102.196 11.6035V19H100.925V16.1221H99.0176L97.2744 19H95.9072L97.7666 15.9307C97.2926 15.7575 96.9281 15.4909 96.6729 15.1309C96.4222 14.7663 96.2969 14.3424 96.2969 13.8594C96.2969 13.1849 96.5498 12.6426 97.0557 12.2324C97.5615 11.8177 98.2383 11.6081 99.0859 11.6035H102.196ZM97.5684 13.873C97.5684 14.2331 97.6914 14.5247 97.9375 14.748C98.1836 14.9668 98.5094 15.0785 98.915 15.083H100.925V12.6289H99.1064C98.637 12.6289 98.2633 12.7451 97.9854 12.9775C97.7074 13.2054 97.5684 13.5039 97.5684 13.873Z" fill="white"/>
</svg>
