<svg width="140" height="40" viewBox="0 0 140 40" fill="none" xmlns="http://www.w3.org/2000/svg">
<path d="M8.02175 0C6.74143 0 5.08162 1.37377 4.10246 2.28825C1.94977 4.22171 0 7.77695 0 10.6306C0 14.6854 3.40806 16.216 4.27007 16.216C4.55427 16.216 4.79657 16.0676 4.79657 15.6774C4.79657 15.3715 4.60486 15.117 4.41413 14.8555C3.62486 13.6346 3.37135 12.4694 3.37135 10.8979C3.37135 7.62125 4.86482 4.6179 6.10366 3.24356C6.33209 2.99484 6.84822 2.45756 7.00266 2.45756C7.15597 2.45756 7.19395 2.5839 7.19395 2.97442L7.05002 24.4206C7.05002 27.7732 6.09399 29.105 6.09399 29.8944C6.09399 30.2412 6.2424 30.3313 6.52576 30.3313C7.86746 30.3313 9.20454 28.6766 9.58333 28.0731C10.758 26.0201 11.0461 24.4175 11.0461 19.7947V1.77351C11.0461 1.28571 10.9109 1.07485 10.4529 0.774093C9.78317 0.343726 9.01577 0 8.02175 0ZM46.3841 0.0598401C45.753 0.0598401 45.4833 0.39364 45.4534 1.42652L45.3134 5.70325L41.617 5.57364C41.3927 5.56783 41.2914 5.63958 41.1933 5.83895C40.8794 6.43451 40.7142 6.90118 40.7142 7.67825C40.7142 8.31097 40.9977 8.37847 41.2505 8.37847L45.0965 8.49021L45.0847 16.6609C45.0847 18.3939 44.004 20.642 42.0863 22.5118C42.0863 22.5118 42.2512 21.9473 42.2418 21.355C42.2418 19.6785 41.1755 18.1592 39.7539 17.0841L36.2842 14.4429C37.0115 13.5915 38.2438 11.9029 38.2438 10.4771C38.2438 9.37164 37.5568 8.90724 36.2762 8.90724C34.4688 8.90724 32.3728 10.5822 32.3728 13.0664C32.3728 13.972 32.7709 14.787 33.3762 15.4104C32.5405 17.0147 31.3581 19.1256 30.4802 20.6288C29.817 21.7798 28.6952 23.5433 28.0315 23.5433C27.5421 23.5433 27.3159 22.7642 27.3159 19.7711C27.3159 17.2843 27.4906 14.5806 27.5781 11.9853C27.5781 11.3905 27.4817 10.8417 26.7185 10.3037C26.0164 9.84852 25.1494 9.21283 24.2563 9.21283C22.2708 9.21283 20.9181 11.0615 19.9903 12.8692C19.03 14.7426 18.5108 16.3215 17.7783 18.6121L17.8592 10.7287C17.8841 10.1666 17.7438 9.94835 17.2993 9.75706C16.7226 9.50962 15.8738 9.22431 15.1208 9.22431C14.4916 9.22431 14.4151 9.49884 14.4151 10.1679L14.3304 19.6273L14.3208 23.2757C14.3208 26.565 14.7279 27.1135 16.6569 27.1135C17.7249 27.1135 18.067 26.9866 18.0882 26.0883C18.1174 25.4942 18.3983 24.0547 18.7782 22.6112C19.8894 18.3504 21.206 14.9803 23.4761 12.4117C23.7128 12.1624 23.8958 12.2516 23.8586 12.6051C23.8586 12.6051 23.4997 18.3715 23.4997 20.7301C23.4997 24.9248 24.1376 27.1137 26.2003 27.1137C28.2248 27.1137 30.2131 24.4817 31.2984 22.7049L34.7802 16.8122C37.0363 18.7575 38.6107 20.2657 38.6107 22.1004C38.6107 23.2408 37.8996 24.3565 36.8165 24.3565C35.4628 24.3565 34.598 22.9121 33.6838 22.9121C32.9249 22.9121 31.9509 24.3945 31.9509 25.2362C31.9509 26.0309 33.6647 27.1551 36.7397 27.1551C41.2789 27.1551 43.714 24.003 45.1754 20.5124C45.4551 24.6553 47.0865 27.0752 49.6309 27.0752C51.2998 27.0752 53.2287 24.9417 54.1061 22.3355C54.1061 22.3355 54.1927 23.0121 54.8591 24.3982C55.7763 26.2083 57.1707 27.0394 58.9027 27.0394C61.0569 27.0394 62.8995 25.7179 64.0244 23.5006C64.1949 25.1808 65.5892 27.0311 67.8313 27.0311C69.2387 27.0311 70.5218 25.94 71.3641 24.1427C71.3641 24.1427 72.455 27.1111 75.6106 27.1111C77.3829 27.1111 79.4817 25.4498 79.9832 24.2426L80.0384 25.9981L75.3565 30.3669C73.997 31.7022 72.5509 33.6208 72.5509 35.745C72.5509 38.4466 75.0717 40 77.2902 40C79.5962 40 81.1262 38.5217 81.9644 37.2831C83.0192 35.6803 83.4647 32.6595 83.4647 29.7066L83.3602 25.2664C86.5157 21.7567 88.9854 16.9055 90.0848 13.4731L92.4801 13.4093C92.9441 13.3777 92.9209 13.5626 92.8568 13.8363C92.4358 15.6363 92.0682 17.6748 92.0682 19.705C92.0682 23.059 92.8317 24.5186 93.9291 25.7114C94.8833 26.7108 95.8322 27.0479 96.831 27.0479C98.7843 27.0479 100.01 25.4157 100.399 24.3868C101.317 26.1969 102.668 27.0399 104.399 27.0399C106.554 27.0399 108.396 25.7185 109.521 23.5011C109.692 25.1813 111.086 27.0317 113.328 27.0317C115.003 27.0317 115.975 26.0537 116.739 24.211C116.754 24.8037 116.777 25.4356 116.794 26.028C116.814 26.3346 117.056 26.5286 117.273 26.6086C117.985 26.8813 118.61 27.0177 119.172 27.0177C120.636 27.0177 120.954 26.7134 120.954 25.7449C120.954 24.1475 121 21.6236 121.449 19.5971C121.925 17.5795 122.644 15.2955 123.635 13.7064C123.724 13.5422 123.943 13.5853 123.953 13.7842C124.095 17.1845 124.32 22.9405 125.203 24.4305C125.638 25.1412 126.312 25.6592 127.32 25.6592C127.793 25.6592 128.372 25.4553 128.52 25.3281C128.671 25.2096 128.746 25.0778 128.737 24.8335C128.737 20.4867 130.077 16.2785 131.418 13.4491C131.455 13.3652 131.56 13.3587 131.556 13.4691L131.481 16.6011C131.481 21.7451 131.848 24.9949 134.387 26.5572C134.887 26.8399 135.449 26.9876 136.022 26.9859C137.321 26.9859 138.499 26.2517 139.081 25.0709C139.556 24.1533 140 22.3872 140 21.3867C140 20.9995 140.004 20.3692 139.377 20.3692C139.033 20.3692 138.826 20.6258 138.744 21.0135C138.544 21.8538 138.38 22.5745 138.07 23.4053C137.773 24.1984 137.331 24.6602 136.806 24.6602C136.19 24.6602 135.877 24.1695 135.698 23.8661C134.912 22.6523 134.848 19.8639 134.848 17.5366L135.038 11.5462C135.038 11.0506 134.833 10.4574 134.078 10.0201C133.57 9.72459 132.287 9.1683 131.501 9.1683C130.772 9.1683 130.419 9.58605 130.156 10.1993C129.663 11.3008 128.014 15.6214 127.572 19.1341C127.556 19.2267 127.442 19.2463 127.434 19.1281C127.204 16.6441 127.086 13.6511 127.089 11.6318C127.089 11.0214 126.941 10.1487 125.661 9.58321C125.039 9.32215 124.525 9.16234 123.897 9.16234C123.117 9.16234 122.95 9.54833 122.671 10.0598C121.788 11.7107 121.177 13.8635 120.262 16.579L120.276 10.3652C120.276 10.0747 120.1 9.69382 119.595 9.59129C118.345 9.3006 117.766 9.16858 117.273 9.16858C116.914 9.16858 116.717 9.458 116.717 9.77096L116.65 20.3655C116.408 21.6624 115.428 24.7581 114.038 24.7581C112.897 24.7581 112.364 23.5882 112.364 18.6981L112.571 10.7505C112.571 10.2485 112.245 10.0377 111.771 9.82512C111.092 9.5523 110.552 9.44396 109.862 9.44396C108.997 9.44396 108.699 9.86327 108.875 10.8705C107.923 9.56761 106.972 8.84755 105.291 8.84755C101.916 8.84755 99.3724 12.9548 99.3724 18.9235C99.3394 20.5972 99.739 22.2607 99.739 22.2607C99.4337 23.6498 98.7159 24.782 97.7242 24.782C96.4732 24.782 95.676 22.9924 95.676 19.8907C95.676 16.7799 96.847 13.2713 96.847 12.3204C96.847 11.2148 96.131 10.5153 94.8637 10.5153C94.2289 10.5153 91.8738 11.0558 90.6665 11.2332C90.6665 11.2332 90.8027 10.6514 90.7926 10.1939C90.7926 9.10378 90.2872 8.42058 89.0322 8.42058C87.4986 8.42058 86.3726 9.52862 86.3726 11.419C86.3726 12.2671 86.8554 13.0518 87.4944 13.4734C86.665 16.9742 85.3163 19.5776 83.3288 22.4861L83.4963 10.7087C83.4963 10.3258 83.3955 10.088 82.6543 9.79691C82.2625 9.62561 81.6238 9.4278 80.8189 9.4278C79.6522 9.4278 79.7294 10.2708 79.7918 10.902C79.258 9.94424 78.0894 8.80742 76.2865 8.80742C71.3734 8.80742 69.8651 16.3881 70.6048 21.7717C70.6048 22.4281 69.9713 24.7581 68.5406 24.7581C67.3995 24.7581 66.867 23.5882 66.867 18.6981L67.076 10.7505C67.076 10.2484 66.7481 10.0375 66.2735 9.82512C65.5948 9.5523 65.0568 9.44396 64.367 9.44396C63.5011 9.44396 63.204 9.86327 63.3792 10.8703C62.4275 9.56747 61.4741 8.8474 59.7931 8.8474C56.4185 8.8474 53.8412 12.6037 53.8412 18.5721C53.8412 20.8505 51.9025 24.3271 50.543 24.3271C49.7878 24.3271 48.9837 22.9243 48.9837 19.3401C48.9875 16.897 49.3168 8.58011 49.3168 8.58011L54.0621 8.50226C54.2886 8.50013 54.4197 8.24971 54.5037 8.09543C54.7216 7.64805 54.827 7.35013 54.827 6.81483C54.827 6.33185 54.7314 6.15545 54.1193 6.12057L49.3897 5.83328L49.5909 1.37505C49.6051 1.09357 49.4372 0.91008 49.1335 0.772675C48.218 0.410373 47.0952 0.0599819 46.3841 0.0598401ZM60.7459 11.7414C62.0111 11.7414 63.2949 12.909 63.2949 17.0515C63.2949 22.2672 61.4171 24.6938 59.973 24.6938C58.6193 24.6938 57.5917 22.7604 57.5917 18.9627C57.5917 15.124 58.5952 11.7414 60.7459 11.7414ZM106.31 11.7414C107.575 11.7414 108.859 12.909 108.859 17.0515C108.859 22.2672 106.981 24.6938 105.537 24.6938C104.183 24.6938 103.155 22.7604 103.155 18.9627C103.156 15.124 104.159 11.7414 106.31 11.7414ZM77.4105 11.7654C79.0617 11.7654 79.7921 13.4874 79.7921 16.826C79.7921 21.8595 78.3133 24.7255 76.5174 24.7255C75.3709 24.7255 74.0526 22.8206 74.1221 19.0741C74.1221 16.6787 74.894 11.7654 77.4105 11.7654ZM80.2059 28.6037V30.5864C80.2059 37.1654 78.4734 38.2883 77.0812 38.2883C76.5537 38.2883 75.2616 37.8852 75.2616 36.2576C75.2616 33.9824 77.6125 31.3941 78.343 30.5943L80.2059 28.6037Z" fill="#10151C"/>
</svg>
