<svg xmlns="http://www.w3.org/2000/svg" width="50" height="50" fill="none" viewBox="0 0 50 50">
    <path fill="#515C6B" d="M48.485 25.05h-.05v-2.398a2.301 2.301 0 0 0-1.566-2.178V10.126a.732.732 0 0 0-.733-.732H3.864a.732.732 0 0 0-.733.732v10.348a2.302 2.302 0 0 0-1.565 2.177v2.4h-.05C.68 25.05 0 25.73 0 26.565v6.262c0 .836.68 1.515 1.515 1.515h.05v5.53c0 .405.329.733.733.733h1.566a.733.733 0 0 0 .71-.555l1.427-5.708H44l1.427 5.708a.732.732 0 0 0 .71.555h1.566a.732.732 0 0 0 .732-.732v-5.53h.05c.836 0 1.516-.68 1.516-1.516v-6.262c0-.836-.68-1.516-1.515-1.516zM3.292 39.141H3.03v-4.797h1.461l-1.2 4.797zm43.678 0h-.262l-1.2-4.797h1.462v4.797zm1.515-6.262H1.515a.05.05 0 0 1-.05-.05v-6.263a.05.05 0 0 1 .05-.05h41.49a.732.732 0 1 0 0-1.466H3.03v-2.399c0-.459.374-.833.834-.833h1.565a.732.732 0 1 0 0-1.465h-.833V10.86h40.808v9.495h-4.015v-3.965a2.3 2.3 0 0 0-2.298-2.298H28.13a2.3 2.3 0 0 0-2.298 2.298v3.965h-1.666v-3.965a2.3 2.3 0 0 0-2.298-2.298h-10.96a2.3 2.3 0 0 0-2.298 2.298v3.965h-.05a.732.732 0 1 0 0 1.464h37.575c.46 0 .833.374.833.833v2.4h-.833a.732.732 0 0 0 0 1.464h2.349a.05.05 0 0 1 .05.05v6.263a.05.05 0 0 1-.05.05zm-8.56-16.49v3.965H27.297v-3.965c0-.46.374-.833.833-.833h10.96c.46 0 .833.373.833.833zm-17.223 0v3.965H10.076v-3.965c0-.46.374-.833.833-.833h10.96c.46 0 .833.373.833.833z"/>
</svg>
