<svg xmlns="http://www.w3.org/2000/svg" width="40" height="40" fill="none" viewBox="0 0 40 40">
    <g clip-path="url(#a)">
        <path fill="#515C6B" d="M29.999 22.765l-.748-4.853c-.33-2.15-.33-4.34 0-6.49l.772-5.012A3.334 3.334 0 0 0 28.745 0H11.412a3.333 3.333 0 0 0-1.278 6.41l.772 5.011c.33 2.15.33 4.34 0 6.49l-.748 4.854a1.993 1.993 0 0 0-.08 3.788V38a2 2 0 1 0 4 0V26.667h12V38a2 2 0 1 0 4 0V26.553a1.993 1.993 0 0 0-.08-3.788zm-14.476-.098l.7-4.553c.352-2.285.352-4.61 0-6.895l-.7-4.552h3.889v16h-3.89zm-4 0l.7-4.553c.351-2.285.351-4.61 0-6.895l-.7-4.552h2.65l.733 4.754c.33 2.15.33 4.34 0 6.49l-.733 4.756h-2.65zm9.222-16h3.89l-.702 4.552c-.35 2.285-.35 4.61 0 6.895l.702 4.553h-3.89v-16zm5.239 16l-.733-4.755c-.33-2.15-.33-4.34 0-6.49l.733-4.755h2.65l-.7 4.552c-.351 2.285-.351 4.61 0 6.895l.7 4.553h-2.65zM9.412 3.333a2 2 0 0 1 2-2h17.333a2 2 0 0 1 0 4H11.412a2 2 0 0 1-2-2zm20 22a.667.667 0 0 0-.667.667v12a.667.667 0 0 1-1.333 0V26a.667.667 0 0 0-.667-.667H13.412a.667.667 0 0 0-.667.667v12a.667.667 0 0 1-1.333 0V26a.667.667 0 0 0-.667-.667.667.667 0 1 1 0-1.333h18.667a.667.667 0 0 1 0 1.333z"/>
    </g>
    <defs>
        <clipPath id="a">
            <path fill="#fff" d="M0 0h40v40H0z"/>
        </clipPath>
    </defs>
</svg>
