<svg xmlns="http://www.w3.org/2000/svg" width="40" height="40" fill="none" viewBox="0 0 40 40">
    <g fill="#515C6B" clip-path="url(#a)">
        <path d="M10.91 19.09a.909.909 0 1 0-1.82 0c0 2.388 2.634 5.666 2.934 6.032a.911.911 0 0 0 1.28.127.91.91 0 0 0 .126-1.28c-.974-1.189-2.52-3.563-2.52-4.878zM30 18.182a.909.909 0 0 0-.909.909c0 1.311-1.546 3.688-2.521 4.878a.91.91 0 0 0 1.406 1.153c.3-.366 2.934-3.644 2.934-6.031a.909.909 0 0 0-.91-.91zM20 18.182a.909.909 0 0 0-.91.909v5.454a.909.909 0 1 0 1.82 0v-5.454a.909.909 0 0 0-.91-.91z"/>
        <path d="M30 3.636c-.55 0-1.127.073-1.724.184C26.273 1.486 23.309 0 20 0c-3.31 0-6.273 1.486-8.275 3.82A9.531 9.531 0 0 0 10 3.636c-5.514 0-10 4.486-10 10a9.996 9.996 0 0 0 5.476 8.912l-.018 13.738c0 .992.385 1.924 1.085 2.626A3.683 3.683 0 0 0 9.167 40h21.67a3.713 3.713 0 0 0 3.708-3.71V22.536A9.998 9.998 0 0 0 40 13.636c0-5.514-4.486-10-10-10zm2.727 32.655a1.894 1.894 0 0 1-1.89 1.89H9.166a1.88 1.88 0 0 1-1.338-.554 1.879 1.879 0 0 1-.553-1.339l.005-3.56h25.446v3.563zm.563-15.171a.89.89 0 0 0-.415.344.896.896 0 0 0-.148.517v8.928H7.283l.012-8.916a.911.911 0 0 0-.566-.863 8.18 8.18 0 0 1-4.91-7.494c0-4.511 3.67-8.181 8.181-8.181.176 0 .362.02.545.035a10.83 10.83 0 0 0-1.454 5.42.909.909 0 1 0 1.818 0c0-5.013 4.079-9.092 9.091-9.092s9.09 4.079 9.09 9.091a.909.909 0 1 0 1.82 0c0-1.973-.535-3.82-1.455-5.419.183-.014.369-.035.545-.035 4.512 0 8.182 3.67 8.182 8.181a8.183 8.183 0 0 1-4.892 7.483z"/>
    </g>
    <defs>
        <clipPath id="a">
            <path fill="#fff" d="M0 0h40v40H0z"/>
        </clipPath>
    </defs>
</svg>
