<svg xmlns="http://www.w3.org/2000/svg" width="40" height="40" fill="none" viewBox="0 0 40 40">
    <path fill="#515C6B" d="M35.082 0H4.918a.703.703 0 0 0-.702.703v38.594c0 .388.314.703.702.703h30.164a.703.703 0 0 0 .703-.703V.703A.703.703 0 0 0 35.082 0zm-.702 9.649H20.703V1.405H34.38V9.65zM20.703 20.703H34.38v8.243H20.703v-8.243zm0-1.406v-8.243H34.38v8.243H20.703zM5.62 1.405h13.677v37.19H5.62V1.405zm15.082 37.19V30.35H34.38v8.244H20.703z"/>
    <path fill="#515C6B" d="M17.284 16.768a.702.702 0 0 0-.703.703v5.058a.702.702 0 1 0 1.405 0v-5.058a.703.703 0 0 0-.702-.703z"/>
</svg>
