<svg xmlns="http://www.w3.org/2000/svg" width="40" height="40" fill="none" viewBox="0 0 40 40">
    <path fill="#515C6B" d="M37.279 6.911H27.195l-2.61-2.826a4.115 4.115 0 0 0-3.015-1.32H2.721C1.221 2.765 0 3.985 0 5.486v29.028c0 1.5 1.22 2.721 2.721 2.721H37.28c1.5 0 2.721-1.22 2.721-2.721V9.633c0-1.5-1.22-2.722-2.721-2.722zM23.634 4.964L25.43 6.91h-2.383L20.44 4.085l-.024-.025h1.155c.782 0 1.534.33 2.064.904zm-6.21-.904c.78 0 1.533.33 2.063.904l1.798 1.947h-2.703l-2.609-2.826-.024-.025h1.475zm-14.703 0h10.237c.781 0 1.533.33 2.063.904l1.798 1.947H2.72c-.522 0-1.01.149-1.425.405v-1.83c0-.786.64-1.426 1.425-1.426zm35.983 30.454c0 .786-.64 1.425-1.425 1.425H2.72c-.786 0-1.425-.639-1.425-1.425V9.633c0-.786.64-1.426 1.425-1.426H37.28c.786 0 1.425.64 1.425 1.426v24.881z"/>
    <path fill="#515C6B" d="M34.514 11.058h-9.676c-.738 0-1.339.601-1.339 1.34v6.91c0 .74.6 1.34 1.34 1.34h9.675c.738 0 1.34-.6 1.34-1.34v-6.91c0-.739-.602-1.34-1.34-1.34zm.043 8.25c0 .025-.019.044-.043.044h-9.676a.043.043 0 0 1-.043-.043v-6.912c0-.023.02-.043.043-.043h9.676c.024 0 .043.02.043.043v6.912z"/>
    <path fill="#515C6B" d="M32.44 13.823h-5.528a.648.648 0 0 0 0 1.296h5.529a.648.648 0 0 0 0-1.296zM32.44 16.587h-5.528a.648.648 0 0 0 0 1.296h5.529a.648.648 0 0 0 0-1.296z"/>
</svg>
