<svg xmlns="http://www.w3.org/2000/svg" width="50" height="32" fill="none" viewBox="0 0 50 32">
    <path fill="#515C6B" d="M48.027 24.667L26.041 13.052v-1.466l.029-.008c3.463-.857 5.789-3.015 5.789-5.789A5.79 5.79 0 0 0 26.069 0c-2.952 0-5.518 2.16-5.772 5.056a.795.795 0 0 0-.012.136l-.002.017a1.042 1.042 0 0 0 2.085 0h.006a3.246 3.246 0 0 1 .906-1.95 3.86 3.86 0 0 1 2.79-1.175 3.71 3.71 0 0 1 3.704 3.705c0 .78-.325 1.495-.969 2.125-.752.736-1.87 1.304-3.236 1.642 0 0-1.582.488-1.61.498v.362h-.001v2.636L1.975 24.667C.795 25.275 0 26.416 0 27.725c0 1.947 1.76 3.525 3.93 3.525H46.071c2.17 0 3.928-1.578 3.928-3.525 0-1.309-.794-2.45-1.973-3.058zm-1.955 4.499H3.93c-1 0-1.845-.66-1.845-1.44 0-.483.316-.935.846-1.21l.009-.002.009-.006 22.05-11.65 22.056 11.65.009.006.009.003c.53.274.845.726.845 1.208 0 .781-.845 1.44-1.845 1.44z"/>
</svg>
