<svg xmlns="http://www.w3.org/2000/svg" width="45" height="45" fill="none" viewBox="0 0 45 45">
    <path fill="#515C6B" d="M39.97 33.001c-.716-1.24-1.772-2.046-3.139-2.397a5.315 5.315 0 0 0-.982-.157 15.837 15.837 0 0 0-.038-3.21c2.43-.333 4.304-2.353 4.304-4.787 0-2.666-2.248-4.835-5.012-4.835-.271 0-.539.022-.801.063.568-1.369.88-2.86.88-4.421 0-1.015-.13-2.016-.39-2.988 1.993-.842 3.32-2.75 3.32-4.908C38.112 2.405 35.617 0 32.55 0c-1.87 0-3.6.91-4.621 2.377a12.947 12.947 0 0 0-5.22-1.097c-1.805 0-3.592.378-5.22 1.097C16.465.91 14.735 0 12.866 0 9.8 0 7.305 2.405 7.305 5.36c0 2.16 1.327 4.067 3.32 4.91a11.54 11.54 0 0 0 .49 7.408 5.255 5.255 0 0 0-.801-.063c-2.764 0-5.012 2.17-5.012 4.835 0 2.434 1.875 4.454 4.304 4.786a15.805 15.805 0 0 0-.035 3.25l-.101-.002c-.43 0-.868.056-1.302.167-1.367.35-2.423 1.157-3.138 2.398-1.24 2.146-1.175 5.32-.56 7.511C5.2 43.174 7.673 45 10.481 45c.118 0 .235-.004.353-.01h.015l.023-.002.028-.002c2.302-.125 4.328-1.484 5.287-3.445a12.312 12.312 0 0 0 6.52 1.872c2.202 0 4.348-.593 6.266-1.72.03.057.06.115.094.172.829 1.437 2.194 2.461 3.843 2.884a6.47 6.47 0 0 0 1.606.204c2.809 0 5.281-1.826 6.013-4.44.614-2.192.679-5.365-.56-7.512zM9.063 5.361c0-1.987 1.706-3.603 3.804-3.603 1.5 0 2.864.84 3.476 2.138a.88.88 0 0 0 1.204.404 11.138 11.138 0 0 1 5.161-1.261c1.806 0 3.59.436 5.162 1.261a.879.879 0 0 0 1.204-.404c.611-1.298 1.976-2.138 3.476-2.138 2.097 0 3.803 1.616 3.803 3.603 0 1.405-.854 2.655-2.15 3.245-.209-.475-.449-.938-.72-1.383a.88.88 0 0 0-1.502.913c.359.59.656 1.217.884 1.864l.019.046a9.769 9.769 0 0 1 .54 3.211c0 5.352-4.337 9.756-9.837 10.184v-6.537c1.273-.436 2.172-1.758 2.172-2.925 0-.64-.297-2.129-3.05-2.129-2.754 0-3.052 1.489-3.052 2.129 0 1.167.9 2.49 2.172 2.925v6.537c-5.499-.428-9.837-4.832-9.837-10.184 0-1.115.187-2.211.556-3.258a.879.879 0 0 0-.623-1.147C10.24 8.446 9.063 7.01 9.063 5.361zM22.71 30.24a.88.88 0 0 0-.88.88v2.664c-2.978-.428-5.274-2.995-5.274-6.09 0-1.253.384-2.47 1.09-3.494a12.84 12.84 0 0 0 5.064 1.032c1.801 0 3.515-.369 5.064-1.032a6.157 6.157 0 0 1 1.09 3.494c0 3.095-2.297 5.662-5.275 6.09V31.12a.88.88 0 0 0-.88-.879zM21.416 13.98c0-.086 0-.121.145-.193.135-.066.463-.178 1.148-.178.684 0 1.012.112 1.147.178.145.072.145.107.145.193 0 .495-.604 1.315-1.293 1.315-.688 0-1.292-.82-1.292-1.315zm-7.007 27.055c-.59 1.024-1.57 1.755-2.757 2.06-.287.073-.58.12-.874.138h-.002a4.64 4.64 0 0 1-.294.01c-2.023 0-3.8-1.298-4.32-3.156-.497-1.778-.587-4.464.39-6.159.478-.826 1.15-1.341 2.053-1.573.291-.074.582-.112.865-.112a3.274 3.274 0 0 1 .904.129c2.265.647 3.89 3.597 4.434 5.538a4.033 4.033 0 0 1-.4 3.125zm14.09-3.646a5.77 5.77 0 0 0-.122 2.609 10.594 10.594 0 0 1-5.668 1.658c-2.15 0-4.229-.656-6.04-1.9a5.782 5.782 0 0 0-.168-2.32c-.64-2.286-2.441-5.483-5.118-6.571a14.033 14.033 0 0 1 .1-4.313.88.88 0 0 0-.926-1.034c-.08.006-.162.009-.243.009-1.794 0-3.253-1.38-3.253-3.076 0-1.697 1.46-3.077 3.253-3.077.858 0 1.665.313 2.277.881a12.385 12.385 0 0 0 3.479 3.138 7.916 7.916 0 0 0-1.273 4.303c0 4.363 3.549 7.912 7.912 7.912 4.362 0 7.912-3.55 7.912-7.912a7.917 7.917 0 0 0-1.273-4.303 12.379 12.379 0 0 0 3.478-3.138 3.328 3.328 0 0 1 2.277-.88c1.794 0 3.254 1.38 3.254 3.076 0 1.696-1.46 3.076-3.254 3.076-.08 0-.162-.003-.243-.009a.879.879 0 0 0-.927 1.034 13.977 13.977 0 0 1 .127 4.108c-2.921.896-4.887 4.32-5.561 6.729zm10.338 2.651c-.52 1.858-2.296 3.156-4.32 3.156-.392 0-.786-.05-1.17-.149-1.186-.304-2.165-1.035-2.756-2.06a4.032 4.032 0 0 1-.4-3.124c.573-2.044 2.345-5.206 4.8-5.621l.028-.005c.167-.027.338-.041.511-.041.283 0 .574.038.864.112.905.232 1.576.747 2.053 1.573.978 1.695.888 4.381.39 6.16z"/>
    <path fill="#515C6B" d="M28.236 9.958c-.811 0-1.473.634-1.473 1.41 0 .777.661 1.41 1.473 1.41.811 0 1.473-.633 1.473-1.41 0-.776-.662-1.41-1.473-1.41zM17.181 9.958c-.811 0-1.473.634-1.473 1.41 0 .777.662 1.41 1.473 1.41s1.473-.633 1.473-1.41c0-.776-.662-1.41-1.473-1.41zM31.718 4.973l-.02-.02a.88.88 0 0 0-1.245.017.877.877 0 0 0 .018 1.242l.005.006a.878.878 0 0 0 1.24 0 .881.881 0 0 0 .002-1.245zM22.708 27.695a.88.88 0 0 0-.879.879v.02a.88.88 0 1 0 1.758 0v-.02a.88.88 0 0 0-.879-.88z"/>
</svg>
