<svg xmlns="http://www.w3.org/2000/svg" width="40" height="40" fill="none" viewBox="0 0 40 40">
    <g fill="#515C6B" clip-path="url(#a)">
        <path d="M38.663 36.51V3.496L39.93.97a.667.667 0 0 0-.6-.965H.667A.667.667 0 0 0 .07.97l1.263 2.525v33.016L.07 39.036a.667.667 0 0 0 .597.965H39.33a.666.666 0 0 0 .6-.965l-1.267-2.525zm-35.996-.509V4.005h17.331V36H2.667zM37.33 4.005v15.998H21.332V4.005H37.33zM21.332 21.335H37.33v6.666H21.332v-6.666zm0 8H37.33V36H21.332v-6.666zM38.25 1.337l-.667 1.333H2.412l-.666-1.333H38.25zM1.746 38.668l.666-1.334h35.172l.667 1.334H1.746z"/>
        <path d="M30.664 22.002h-2.666a.667.667 0 0 0 0 1.333h2.666a.667.667 0 1 0 0-1.333zM30.664 30h-2.666a.667.667 0 0 0 0 1.334h2.666a.667.667 0 0 0 0-1.333zM18.666 18.002a.667.667 0 0 0-.667.667v2.666a.667.667 0 0 0 1.333 0V18.67a.667.667 0 0 0-.666-.667z"/>
    </g>
    <defs>
        <clipPath id="a">
            <path fill="#fff" d="M0 0h40v40H0z"/>
        </clipPath>
    </defs>
</svg>
