<svg width="40" height="40" viewBox="0 0 40 40" fill="none" xmlns="http://www.w3.org/2000/svg">
<path d="M35.0339 15.0877L35.2119 15.6326L35.7721 15.7544L38.846 16.4227C38.9361 16.4423 39 16.5219 39 16.6135V23.3865C39 23.4781 38.9361 23.5577 38.846 23.5773L35.7721 24.2456L35.2119 24.3674L35.0339 24.9123C34.7826 25.6816 34.4713 26.4323 34.1037 27.1555L33.8437 27.6669L34.1539 28.1494L35.8558 30.7966C35.9055 30.874 35.8944 30.9756 35.8298 31.0403L31.0403 35.8298L31.0401 35.83C30.9758 35.8944 30.8744 35.9058 30.7966 35.8558L28.1494 34.1539L27.6669 33.8437L27.1555 34.1037C26.4323 34.4713 25.6816 34.7826 24.9123 35.0339L24.3674 35.2119L24.2456 35.7721L23.5773 38.8464L23.5772 38.8466C23.5579 38.9358 23.4785 39 23.3865 39H16.6135C16.5215 39 16.4421 38.9358 16.4228 38.8466L16.4227 38.8464L15.7544 35.7721L15.6326 35.2119L15.0877 35.0339C14.3184 34.7826 13.5677 34.4713 12.8445 34.1037L12.3331 33.8437L11.8506 34.1539L9.20336 35.8558C9.12596 35.9055 9.02435 35.8944 8.95967 35.8298L4.17024 31.0403C4.10556 30.9756 4.09446 30.874 4.1442 30.7966L5.84605 28.1494L6.15627 27.6669L5.89632 27.1555C5.52868 26.4323 5.21736 25.6816 4.96608 24.9123L4.7881 24.3674L4.22793 24.2456L1.15395 23.5773C1.06391 23.5577 1 23.4781 1 23.3865V16.6135C1 16.5219 1.06391 16.4423 1.15395 16.4227L4.22793 15.7544L4.7881 15.6326L4.96608 15.0877C5.21736 14.3184 5.52868 13.5677 5.89632 12.8445L6.15627 12.3331L5.84605 11.8506L4.1442 9.20336C4.09446 9.12596 4.10556 9.02435 4.17024 8.95967L8.95967 4.17024C9.02435 4.10556 9.12596 4.09446 9.20336 4.1442L11.8506 5.84605L12.3331 6.15627L12.8445 5.89632C13.5677 5.52868 14.3184 5.21736 15.0877 4.96608L15.6326 4.7881L15.7544 4.22793L16.4227 1.15359L16.4228 1.15343C16.4421 1.06423 16.5215 1 16.6135 1H23.3865C23.4785 1 23.5579 1.06423 23.5772 1.15343L23.5773 1.15359L24.2456 4.22793L24.3674 4.7881L24.9123 4.96608C25.6816 5.21736 26.4323 5.52868 27.1555 5.89632L27.6669 6.15627L28.1494 5.84605L30.7966 4.1442C30.874 4.09446 30.9756 4.10556 31.0403 4.17024L35.8298 8.95967C35.8944 9.02435 35.9055 9.12596 35.8558 9.20336L34.1539 11.8506L33.8437 12.3331L34.1037 12.8445C34.4713 13.5677 34.7826 14.3184 35.0339 15.0877ZM20 28.1713C24.5064 28.1713 28.1713 24.5064 28.1713 20C28.1713 15.4936 24.5064 11.8287 20 11.8287C15.4936 11.8287 11.8287 15.4936 11.8287 20C11.8287 24.5064 15.4936 28.1713 20 28.1713Z" stroke="#202A39" stroke-width="2"/>
<circle cx="19.5" cy="19.5" r="12.5" fill="white"/>
<path d="M16 18.6734L19.5007 22.3492L25.5474 16" stroke="#202A39" stroke-width="2"/>
</svg>
