<svg width="470" height="55" viewBox="0 0 470 55" fill="none" xmlns="http://www.w3.org/2000/svg">
<path d="M412 52.1803V7C412 5.89543 412.895 5 414 5H444.705C445.234 5 445.743 5.21025 446.118 5.5846L452.397 11.853C452.772 12.2282 452.984 12.7374 452.984 13.2685V52.1803C452.984 53.2849 452.088 54.1803 450.984 54.1803H414C412.895 54.1803 412 53.2849 412 52.1803Z" fill="#2F80ED" fill-opacity="0.15"/>
<rect x="415.779" y="12.0571" width="15.3934" height="29.3279" stroke="#2F80ED" stroke-opacity="0.45"/>
<line x1="423.976" y1="12.377" x2="423.976" y2="41.0655" stroke="#90BBF5"/>
<rect x="423.976" y="21.8936" width="16.2131" height="19.4918" stroke="#90BBF5"/>
<line x1="416.098" y1="25.8115" x2="420.197" y2="25.8115" stroke="#90BBF5"/>
<line x1="425.935" y1="25.8115" x2="430.033" y2="25.8115" stroke="#90BBF5"/>
<line x1="430.853" y1="25.8115" x2="434.951" y2="25.8115" stroke="#90BBF5"/>
<line x1="435.771" y1="25.8115" x2="439.869" y2="25.8115" stroke="#90BBF5"/>
<line x1="421.017" y1="25.8115" x2="425.115" y2="25.8115" stroke="#90BBF5"/>
<rect x="415.279" y="45.1641" width="25.4098" height="1.63934" rx="0.819672" fill="#90BBF5"/>
<rect x="415.279" y="48.4429" width="13.1147" height="1.63934" rx="0.819672" fill="#90BBF5"/>
<rect x="434.951" y="11.5571" width="11.4754" height="1.63934" rx="0.819672" fill="#90BBF5"/>
<rect x="434.951" y="14.8359" width="7.37705" height="1.63934" rx="0.819672" fill="#2F80ED" fill-opacity="0.15"/>
<g clip-path="url(#clip0)">
<path fill-rule="evenodd" clip-rule="evenodd" d="M469.275 36.786C469.223 36.3251 468.686 35.9788 468.221 35.9788C466.719 35.9788 465.385 35.0967 464.826 33.7325C464.255 32.3352 464.623 30.7056 465.743 29.6786C466.096 29.3564 466.138 28.8171 465.843 28.4425C465.074 27.466 464.2 26.584 463.246 25.8196C462.872 25.5198 462.324 25.5615 462 25.9203C461.023 27.0025 459.267 27.4047 457.911 26.8388C456.5 26.245 455.61 24.8148 455.697 23.2796C455.725 22.7973 455.373 22.378 454.892 22.322C453.668 22.1804 452.432 22.176 451.204 22.3123C450.729 22.3647 450.377 22.7741 450.393 23.2503C450.446 24.7704 449.545 26.1756 448.148 26.748C446.808 27.2954 445.065 26.8966 444.09 25.824C443.767 25.4708 443.228 25.4273 442.853 25.72C441.87 26.4908 440.976 27.3736 440.2 28.3419C439.898 28.7184 439.942 29.2641 440.298 29.5879C441.439 30.6212 441.808 32.2649 441.215 33.6783C440.649 35.0258 439.25 35.8943 437.648 35.8943C437.128 35.8775 436.758 36.2264 436.701 36.699C436.557 37.9307 436.555 39.1856 436.694 40.4272C436.745 40.89 437.299 41.2333 437.769 41.2333C439.196 41.1968 440.567 42.0807 441.142 43.4798C441.715 44.8771 441.347 46.5056 440.225 47.5335C439.875 47.8557 439.83 48.3942 440.126 48.7688C440.887 49.739 441.761 50.6218 442.719 51.3926C443.095 51.6952 443.641 51.6525 443.967 51.2938C444.948 50.2089 446.703 49.8074 448.054 50.3745C449.469 50.9664 450.359 52.3965 450.272 53.9326C450.243 54.415 450.597 54.835 451.076 54.8902C451.702 54.9633 452.333 54.9997 452.965 54.9997C453.564 54.9997 454.164 54.9668 454.764 54.9001C455.24 54.8476 455.592 54.4382 455.576 53.9612C455.521 52.442 456.423 51.0367 457.819 50.4653C459.168 49.9143 460.903 50.3176 461.879 51.389C462.203 51.7416 462.738 51.7842 463.116 51.4925C464.097 50.7235 464.988 49.8415 465.768 48.8704C466.071 48.4948 466.028 47.9483 465.67 47.6245C464.529 46.5913 464.159 44.9473 464.752 43.5349C465.309 42.2053 466.656 41.3126 468.105 41.3126L468.308 41.3179C468.778 41.356 469.21 40.994 469.267 40.5142C469.412 39.2815 469.414 38.0276 469.275 36.786ZM453.01 44.1091C449.995 44.1091 447.542 41.6564 447.542 38.641C447.542 35.6258 449.995 33.1729 453.01 33.1729C456.026 33.1729 458.478 35.6258 458.478 38.641C458.478 41.6564 456.026 44.1091 453.01 44.1091Z" fill="url(#paint0_linear)"/>
</g>
<defs>
<linearGradient id="paint0_linear" x1="452.984" y1="22.2129" x2="452.984" y2="54.9997" gradientUnits="userSpaceOnUse">
<stop stop-color="#828282"/>
<stop offset="1" stop-color="#636161"/>
</linearGradient>
<clipPath id="clip0">
<rect width="32.7869" height="32.7869" fill="white" transform="translate(436.59 22.2129)"/>
</clipPath>
</defs>
</svg>
