<svg width="58" height="50" viewBox="0 0 58 50" fill="none" xmlns="http://www.w3.org/2000/svg">
<path d="M0 47.1803V2C0 0.895431 0.895432 0 2 0H32.7046C33.2344 0 33.7426 0.210253 34.1176 0.584598L40.3966 6.85305C40.7724 7.22822 40.9836 7.73744 40.9836 8.26845V47.1803C40.9836 48.2849 40.0882 49.1803 38.9836 49.1803H2C0.895431 49.1803 0 48.2849 0 47.1803Z" fill="#2F80ED" fill-opacity="0.15"/>
<rect x="3.7793" y="7.05713" width="15.3934" height="29.3279" stroke="#2F80ED" stroke-opacity="0.45"/>
<line x1="11.9756" y1="7.37695" x2="11.9756" y2="36.0655" stroke="#90BBF5"/>
<rect x="11.9756" y="16.8936" width="16.2131" height="19.4918" stroke="#90BBF5"/>
<line x1="4.09814" y1="20.8115" x2="8.1965" y2="20.8115" stroke="#90BBF5"/>
<line x1="13.9346" y1="20.8115" x2="18.0329" y2="20.8115" stroke="#90BBF5"/>
<line x1="18.8525" y1="20.8115" x2="22.9509" y2="20.8115" stroke="#90BBF5"/>
<line x1="23.7705" y1="20.8115" x2="27.8689" y2="20.8115" stroke="#90BBF5"/>
<line x1="9.0166" y1="20.8115" x2="13.115" y2="20.8115" stroke="#90BBF5"/>
<rect x="3.2793" y="40.1641" width="25.4098" height="1.63934" rx="0.819672" fill="#90BBF5"/>
<rect x="3.2793" y="43.4429" width="13.1147" height="1.63934" rx="0.819672" fill="#90BBF5"/>
<rect x="22.9507" y="6.55713" width="11.4754" height="1.63934" rx="0.819672" fill="#90BBF5"/>
<rect x="22.9507" y="9.83594" width="7.37705" height="1.63934" rx="0.819672" fill="#2F80ED" fill-opacity="0.15"/>
<g clip-path="url(#clip0)">
<path fill-rule="evenodd" clip-rule="evenodd" d="M57.2748 31.786C57.2229 31.3251 56.6855 30.9788 56.2209 30.9788C54.7186 30.9788 53.3854 30.0967 52.8264 28.7325C52.2552 27.3352 52.6235 25.7056 53.7431 24.6786C54.0956 24.3564 54.1384 23.8171 53.8428 23.4425C53.0739 22.466 52.1999 21.584 51.2457 20.8196C50.8721 20.5198 50.3238 20.5615 49.9998 20.9203C49.0227 22.0025 47.2675 22.4047 45.9112 21.8388C44.4998 21.245 43.6097 19.8148 43.6968 18.2796C43.7255 17.7973 43.373 17.378 42.8923 17.322C41.6677 17.1804 40.4325 17.176 39.2043 17.3123C38.729 17.3647 38.3765 17.7741 38.3925 18.2503C38.446 19.7704 37.5452 21.1756 36.1478 21.748C34.8077 22.2954 33.0648 21.8966 32.0896 20.824C31.7673 20.4708 31.228 20.4273 30.8525 20.72C29.87 21.4908 28.9764 22.3736 28.2004 23.3419C27.8978 23.7184 27.9423 24.2641 28.2983 24.5879C29.4393 25.6212 29.8077 27.2649 29.2149 28.6783C28.649 30.0258 27.2498 30.8943 25.6479 30.8943C25.1281 30.8775 24.7579 31.2264 24.701 31.699C24.5568 32.9307 24.5551 34.1856 24.6939 35.4272C24.7454 35.89 25.2991 36.2333 25.7689 36.2333C27.1964 36.1968 28.567 37.0807 29.142 38.4798C29.7151 39.8771 29.3467 41.5056 28.2253 42.5335C27.8746 42.8557 27.8301 43.3942 28.1257 43.7688C28.8874 44.739 29.7614 45.6218 30.7191 46.3926C31.0947 46.6952 31.6412 46.6525 31.9668 46.2938C32.9476 45.2089 34.7027 44.8074 36.0536 45.3745C37.4686 45.9664 38.3586 47.3965 38.2715 48.9326C38.2431 49.415 38.5972 49.835 39.076 49.8902C39.7025 49.9633 40.3327 49.9997 40.9646 49.9997C41.5644 49.9997 42.1644 49.9668 42.7642 49.9001C43.2396 49.8476 43.5918 49.4382 43.5758 48.9612C43.5208 47.442 44.4231 46.0367 45.8187 45.4653C47.1678 44.9143 48.9034 45.3176 49.8787 46.389C50.2028 46.7416 50.7384 46.7842 51.1159 46.4925C52.0966 45.7235 52.9884 44.8415 53.768 43.8704C54.0705 43.4948 54.0279 42.9483 53.6701 42.6245C52.5291 41.5913 52.1588 39.9473 52.7516 38.5349C53.3088 37.2053 54.6561 36.3126 56.1052 36.3126L56.308 36.3179C56.778 36.356 57.2105 35.994 57.2674 35.5142C57.4119 34.2815 57.4136 33.0276 57.2748 31.786ZM41.0103 39.1091C37.995 39.1091 35.5422 36.6564 35.5422 33.641C35.5422 30.6258 37.995 28.1729 41.0103 28.1729C44.0256 28.1729 46.4783 30.6258 46.4783 33.641C46.4783 36.6564 44.0256 39.1091 41.0103 39.1091Z" fill="url(#paint0_linear)"/>
</g>
<defs>
<linearGradient id="paint0_linear" x1="40.9843" y1="17.2129" x2="40.9843" y2="49.9997" gradientUnits="userSpaceOnUse">
<stop stop-color="#828282"/>
<stop offset="1" stop-color="#636161"/>
</linearGradient>
<clipPath id="clip0">
<rect width="32.7869" height="32.7869" fill="white" transform="translate(24.5903 17.2129)"/>
</clipPath>
</defs>
</svg>
