<svg width="64" height="50" viewBox="0 0 64 50" fill="none" xmlns="http://www.w3.org/2000/svg">
<rect x="62.3071" y="44.6152" width="1.53846" height="4.61538" fill="#828282"/>
<rect x="46.9224" y="44.6152" width="15.3846" height="3.07692" fill="#E0E0E0"/>
<path d="M0 48V5.88024C0 3.97055 2.42088 3.14715 3.58525 4.66082L35.9851 46.7806C36.9968 48.0958 36.0592 50 34.3998 50H2C0.89543 50 0 49.1046 0 48Z" fill="#E0E0E0"/>
<path fill-rule="evenodd" clip-rule="evenodd" d="M38.4618 19.2305C29.9651 19.2305 23.0771 26.1184 23.0771 34.6151C23.0771 43.1118 29.9651 49.9997 38.4618 49.9997C39.0703 49.9997 39.6705 49.9644 40.2606 49.8957C40.9226 49.9998 41.8793 49.9998 43.2571 49.9998H50.6463C51.7664 49.9998 52.3264 49.9998 52.7543 49.7818C53.1306 49.59 53.4365 49.2841 53.6283 48.9077C53.8463 48.4799 53.8463 47.9199 53.8463 46.7998V38.4468C53.8463 37.3163 53.8463 36.4299 53.8057 35.7419C53.8327 35.3698 53.8464 34.9941 53.8464 34.6151C53.8464 26.1184 46.9585 19.2305 38.4618 19.2305Z" fill="url(#paint0_linear)"/>
<path d="M2.30713 9.61538C2.30713 9.8278 2.13493 10 1.92251 10L-0.000563383 10L-0.000563434 9.23077L1.92251 9.23077C2.13493 9.23077 2.30713 9.40297 2.30713 9.61538Z" fill="#BDBDBD"/>
<path d="M2.30713 14.2306C2.30713 14.443 2.13493 14.6152 1.92251 14.6152L-0.000563383 14.6152L-0.000563434 13.846L1.92251 13.846C2.13493 13.846 2.30713 14.0182 2.30713 14.2306Z" fill="#BDBDBD"/>
<path d="M2.30713 18.8459C2.30713 19.0583 2.13493 19.2305 1.92251 19.2305L-0.000563383 19.2305L-0.000563434 18.4612L1.92251 18.4612C2.13493 18.4612 2.30713 18.6334 2.30713 18.8459Z" fill="#BDBDBD"/>
<path d="M2.30713 23.4616C2.30713 23.674 2.13493 23.8462 1.92251 23.8462L-0.000563383 23.8462L-0.000563434 23.077L1.92251 23.077C2.13493 23.077 2.30713 23.2492 2.30713 23.4616Z" fill="#BDBDBD"/>
<path d="M2.30713 28.0768C2.30713 28.2892 2.13493 28.4614 1.92251 28.4614L-0.000563383 28.4614L-0.000563434 27.6922L1.92251 27.6922C2.13493 27.6922 2.30713 27.8644 2.30713 28.0768Z" fill="#BDBDBD"/>
<path d="M2.30713 32.6925C2.30713 32.905 2.13493 33.0771 1.92251 33.0771L-0.000563383 33.0771L-0.000563434 32.3079L1.92251 32.3079C2.13493 32.3079 2.30713 32.4801 2.30713 32.6925Z" fill="#BDBDBD"/>
<path d="M2.30713 37.3078C2.30713 37.5202 2.13493 37.6924 1.92251 37.6924L-0.000563383 37.6924L-0.000563434 36.9232L1.92251 36.9232C2.13493 36.9232 2.30713 37.0953 2.30713 37.3078Z" fill="#BDBDBD"/>
<path d="M2.30713 41.923C2.30713 42.1354 2.13493 42.3076 1.92251 42.3076L-0.000563383 42.3076L-0.000563434 41.5384L1.92251 41.5384C2.13493 41.5384 2.30713 41.7106 2.30713 41.923Z" fill="#BDBDBD"/>
<circle r="6.92308" transform="matrix(1 0 0 -1 38.4617 34.6155)" fill="#4F4F4F"/>
<path d="M7.69238 40.5384V25.4079C7.69238 24.437 8.93661 24.0357 9.50392 24.8236L20.3978 39.9541C20.8741 40.6156 20.4014 41.5384 19.5863 41.5384H8.69238C8.1401 41.5384 7.69238 41.0907 7.69238 40.5384Z" fill="white" stroke="#BDBDBD" stroke-width="2"/>
<defs>
<linearGradient id="paint0_linear" x1="38.4618" y1="19.2305" x2="38.4618" y2="49.9997" gradientUnits="userSpaceOnUse">
<stop stop-color="#FFC412"/>
<stop offset="1" stop-color="#F2994A"/>
</linearGradient>
</defs>
</svg>
