<svg xmlns="http://www.w3.org/2000/svg" width="20" height="28" fill="none" viewBox="0 0 20 28">
    <path stroke="#202A39" stroke-width="2" d="M9.8 26.472a64.106 64.106 0 0 1-4.071-5.375c-1.206-1.788-2.398-3.78-3.285-5.761C1.55 13.342 1 11.436 1 9.8 1 4.934 4.934 1 9.8 1c4.866 0 8.8 3.934 8.8 8.8 0 1.635-.55 3.542-1.444 5.536-.887 1.98-2.079 3.973-3.285 5.76A64.098 64.098 0 0 1 9.8 26.473zM5.3 9.8c0 2.484 2.016 4.5 4.5 4.5s4.5-2.016 4.5-4.5-2.016-4.5-4.5-4.5a4.501 4.501 0 0 0-4.5 4.5z"/>
</svg>
